<svg height="435pt" viewBox="-38 0 435 435.21577" width="435pt" xmlns="http://www.w3.org/2000/svg"><path d="m117.515625 83.355469 54.621094-50.492188v234.460938c0 5.523437 4.476562 10 10 10 5.519531 0 10-4.476563 10-10v-234.460938l54.617187 50.492188c2.621094 2.449219 6.351563 3.308593 9.777344 2.253906 3.429688-1.058594 6.027344-3.871094 6.8125-7.367187.785156-3.5-.363281-7.152344-3.011719-9.574219l-71.410156-66.011719c-3.832031-3.542969-9.742187-3.542969-13.574219 0l-71.410156 66.015625c-2.664062 2.414063-3.828125 6.074219-3.046875 9.585937.78125 3.511719 3.390625 6.332032 6.828125 7.386719 3.4375 1.054688 7.179688.179688 9.796875-2.289062zm0 0"/><path d="m309.257812 144.722656h-48.464843c-5.523438 0-10 4.476563-10 10 0 5.523438 4.476562 10 10 10h48.464843c16.5625.019532 29.980469 13.4375 30 30v190.492188c-.019531 16.5625-13.4375 29.980468-30 30h-259.148437c-16.5625-.019532-29.984375-13.4375-30-30v-190.492188c.015625-16.5625 13.4375-29.980468 30-30h48.464844c5.523437 0 10-4.476562 10-10 0-5.523437-4.476563-10-10-10h-48.464844c-27.601563.03125-49.96875 22.398438-50 50v190.492188c.03125 27.601562 22.398437 49.96875 50 50h259.148437c27.601563-.03125 49.96875-22.398438 50-50v-190.492188c-.03125-27.601562-22.398437-49.96875-50-50zm0 0"/></svg>